<svg width="1440" height="728" viewBox="0 0 1440 728" fill="none" xmlns="http://www.w3.org/2000/svg">
<mask id="mask0_2118_9462" style="mask-type:alpha" maskUnits="userSpaceOnUse" x="0" y="0" width="1440" height="728">
<rect width="1440" height="728" fill="#FF7500"/>
</mask>
<g mask="url(#mask0_2118_9462)">
<path opacity="0.15" d="M620.543 1787.61C646.08 1769.01 669.618 1740.42 690.132 1708.79C738.85 1633.24 766.566 1546.35 776.139 1456.96C783.535 1387.69 815.347 1272.61 932.101 1150.74C1119.13 955.567 1204.14 669.414 1002.69 463.639C801.241 257.864 439.319 319.662 220.802 224.331C2.2848 128.999 -437.459 -94.5288 -745.465 472.177C-746.495 474.064 -747.524 475.952 -748.521 477.849C-804.408 582.004 -829.385 699.955 -820.513 817.823C-811.641 935.692 -769.289 1048.57 -698.441 1143.19L-656.96 1189.2C-576.9 1278.09 -487.159 1357.76 -389.406 1426.72C-296.816 1492.51 -209.081 1564.88 -126.88 1643.27C34.0997 1797.97 348.47 1984.48 620.543 1787.61Z" fill="#252525"/>
</g>
</svg>
